<svg xmlns="http://www.w3.org/2000/svg" viewBox="0 0 16 16" class="design-iconfont">
  <path d="M8,4.22850732 C6,4.22850732 4,5.46622972 4,7.82853094 C4.0814504,9.08086066 4.78330715,10.2240075 5.89454546,10.9142655 L6.06181818,11.5416982 C6.20376882,12.0763075 6.71367747,12.4510285 7.29818182,12.4502767 L8.70909091,12.4502767 C9.29359525,12.4510285 9.80350391,12.0763075 9.94545455,11.5416982 L10.1054546,10.9142655 C11.2166929,10.2240075 11.9185496,9.08086066 12,7.82853094 C12,5.46622973 10,4.22850732 8,4.22850732 L8,4.22850732 Z M9.41454546,10.1016887 L9.17090909,10.2045465 L8.88000001,11.3016966 C8.85978691,11.3787993 8.78605074,11.4327152 8.70181818,11.4319905 L7.29454546,11.4319905 C7.21031291,11.4327152 7.13657673,11.3787993 7.11636364,11.3016966 L6.82545455,10.2045465 L6.58181819,10.1016887 C5.71636364,9.74168634 5.0909091,8.49367816 5.0909091,7.82853094 C5.0909091,6.06280507 6.6,5.25708549 8,5.25708549 C9.4,5.25708549 10.9090909,6.06280506 10.9090909,7.82853094 C10.9090909,8.49367816 10.2836364,9.74168635 9.41454546,10.1016887 L9.41454546,10.1016887 Z M8,3.37135884 C8.14466354,3.37135884 8.28340204,3.31717496 8.38569461,3.22072705 C8.48798718,3.12427914 8.54545455,2.99346769 8.54545455,2.85706975 L8.54545455,2.51421036 C8.54540844,2.23020709 8.30121363,2 8.00000001,2 C7.69878639,2 7.45459158,2.23020709 7.45454546,2.51421036 L7.45454546,2.85706975 C7.45454546,3.14110376 7.69875378,3.37135884 8,3.37135884 Z M11.5745455,4.2422217 L11.8181818,3.99879152 C11.9641115,3.8705823 12.0241814,3.67749417 11.974826,3.49527576 C11.9254706,3.31305735 11.7745618,3.17077093 11.5813011,3.12423556 C11.3880404,3.0777002 11.1832513,3.13433789 11.0472727,3.27192961 L10.7890909,3.51535977 C10.5888299,3.71799637 10.594739,4.03376982 10.8024569,4.22961938 C11.0101748,4.42546894 11.3450838,4.43104041 11.56,4.2422217 L11.5745455,4.2422217 Z M13.5745455,7.2422217 L13.8181818,6.99879152 C13.9641115,6.8705823 14.0241814,6.67749417 13.974826,6.49527576 C13.9254706,6.31305735 13.7745618,6.17077093 13.5813011,6.12423556 C13.3880404,6.0777002 13.1832513,6.13433789 13.0472727,6.27192961 L12.7890909,6.51535977 C12.5888299,6.71799637 12.594739,7.03376982 12.8024569,7.22961938 C13.0101748,7.42546894 13.3450838,7.43104041 13.56,7.2422217 L13.5745455,7.2422217 Z M2.55566694,7.29897943 C2.81212993,7.42573998 3.13418529,7.33367753 3.28413577,7.09074001 C3.43408625,6.84780249 3.35806576,6.54125931 3.11218224,6.39735877 L2.79979338,6.22904567 C2.54928106,6.13911148 2.26185476,6.2399905 2.12547843,6.46571234 C1.9891021,6.69143419 2.04530286,6.9732657 2.25732793,7.12690167 L2.55566694,7.29897943 Z M4.42545455,4.2422217 C4.64037073,4.43104049 4.97527984,4.42546906 5.18299773,4.22961947 C5.39071563,4.03376988 5.39662469,3.71799636 5.19636365,3.51535977 L4.93818182,3.27192961 C4.71948218,3.1202225 4.41574028,3.14327275 4.22558975,3.32600651 C4.03543922,3.50874028 4.01678162,3.79551445 4.18181819,3.99879152 L4.42545455,4.2422217 Z M8.72727272,12.9714218 L7.27272727,12.9714218 C6.97148104,12.9714218 6.72727272,13.2016769 6.72727272,13.4857109 C6.72727272,13.7697449 6.97148104,14 7.27272727,14 L8.72727272,14 C9.02851896,14 9.27272728,13.7697449 9.27272728,13.4857109 C9.27272728,13.2016769 9.02851896,12.9714218 8.72727272,12.9714218 L8.72727272,12.9714218 Z" fill="#EEE" fill-rule="nonzero"/>
</svg>
