<svg xmlns="http://www.w3.org/2000/svg" viewBox="0 0 16 16" class="design-iconfont">
  <path d="M3.0908595,6.9090909 L3.36357438,6.9090909 C4.41788823,6.90909094 5.27257846,7.76382004 5.27257846,8.81818182 C5.27257846,9.87254359 4.41788823,10.7272727 3.36357438,10.7272727 L3.0908595,10.7272727 L3.0908595,12.3090909 C3.0908595,12.6404617 3.35948866,12.9090909 3.69085952,12.9090909 L5.27257852,12.9090909 L5.27257852,12.9090909 L9.0229535,12.9090909 L10.126876,12.9090909 C10.4582469,12.9090909 10.726876,12.6404617 10.726876,12.3090909 L10.726876,9.638 L10.726876,9.638 L11.8177356,9.63636363 C12.4067755,9.61773333 12.8746401,9.13481584 12.8746401,8.54545455 C12.8746401,7.95609325 12.4067755,7.47317576 11.8177356,7.45454546 L10.726876,7.45454546 L10.726876,5.87272729 C10.726876,5.54135643 10.4582469,5.27272727 10.126876,5.27272727 L8.54515704,5.27272727 L8.54515704,5.27272727 L8.54515704,4.18181819 C8.54515704,3.57932573 8.0567626,3.0909091 7.45429753,3.0909091 C6.85183246,3.0909091 6.36343802,3.57932573 6.36343802,4.18181819 L6.36343802,5.27272727 L3.69085952,5.27272727 C3.35948866,5.27272727 3.0908595,5.54135643 3.0908595,5.87272729 L3.0908595,6.9090909 L3.0908595,6.9090909 Z M7.45429753,2 C8.03292539,2 8.58785416,2.22986947 8.99700584,2.63903975 C9.40615752,3.04821004 9.63601654,3.60316403 9.63601654,4.18181819 L10.8177356,4.18181819 C11.3700203,4.18181819 11.8177356,4.62953344 11.8177356,5.18181819 L11.8177356,6.36363637 L11.8177356,6.36363637 C13.0228163,6.36348574 13.9998494,7.34031902 14,8.54545455 C14.0001506,9.75059008 13.0233617,10.7276676 11.818281,10.7278182 L11.8179022,13 C11.8176435,13.5522196 11.3699552,13.9998333 10.8177356,14 L7.93209399,14 L7.93209399,14 L6.36343802,14 L3,14 C2.44771525,14 2,13.5522847 2,13 L2,10.6363636 C2,10.0840789 2.44771525,9.63636363 3,9.63636363 L3.36357438,9.63636363 L3.36357438,9.63636363 C3.81542318,9.63636363 4.18171901,9.27005116 4.18171901,8.81818182 C4.18171901,8.36631248 3.81542318,8 3.36357438,8 L2,8 L2,5.18181819 C2,4.62953344 2.44771525,4.18181819 3,4.18181819 L5.27257852,4.18181819 L5.27257852,4.18181819 C5.27257852,3.60316403 5.50243754,3.04821004 5.91158922,2.63903975 C6.3207409,2.22986947 6.87566967,2 7.45429753,2 Z" fill="#EEE" fill-rule="nonzero"/>
</svg>
