<svg xmlns="http://www.w3.org/2000/svg" viewBox="0 0 16 16" class="design-iconfont">
  <g fill="none" fill-rule="evenodd">
    <path d="M10.1948958,3.3321692 C9.52892044,3.01846956 8.78494038,2.84309757 8,2.84309757 C5.15192143,2.84309757 2.84309757,5.15192143 2.84309757,8 C2.84309757,10.8480786 5.15192143,13.1569024 8,13.1569024 C10.8480786,13.1569024 13.1569024,10.8480786 13.1569024,8" stroke="#EEE" stroke-linecap="round"/>
    <path d="M7.55862703,9.87570848 L7.52766694,9.83904619 L5.58440287,7.89580949 C5.3500883,7.66149492 5.3500883,7.28159593 5.58440287,7.04728135 C5.81871745,6.81296678 6.19861643,6.81296678 6.43293101,7.04728135 L7.98566694,8.60004619 L12.5050253,4.08078212 C12.7393398,3.84646755 13.1192388,3.84646755 13.3535534,4.08078212 C13.587868,4.3150967 13.587868,4.69499568 13.3535534,4.92931026 L8.44507418,9.84084988 C8.43487033,9.85278581 8.42412226,9.86441621 8.41283,9.87570848 C8.30869018,9.97984829 8.17579296,10.0377037 8.03970046,10.0492748 L7.93175656,10.0492748 C7.79566407,10.0377037 7.66276684,9.97984829 7.55862703,9.87570848 Z" fill="#EEE"/>
  </g>
</svg>
