<svg xmlns="http://www.w3.org/2000/svg" viewBox="0 0 22 22" class="design-iconfont">
  <path d="M17,3 C18.1045695,3 19,3.8954305 19,5 L19,17 C19,18.1045695 18.1045695,19 17,19 L5,19 C3.8954305,19 3,18.1045695 3,17 L3,5 C3,3.8954305 3.8954305,3 5,3 L17,3 Z M5.5,4 L5,4 C4.44771525,4 4,4.44771525 4,5 L4,17 C4,17.5522847 4.44771525,18 5,18 L17,18 C17.5522847,18 18,17.5522847 18,17 L18,5 C18,4.44771525 17.5522847,4 17,4 L16.5,4 L16.5,7 C16.5,8.1045695 15.6045695,9 14.5,9 L7.5,9 C6.3954305,9 5.5,8.1045695 5.5,7 L5.5,4 Z M15.5,4 L6.5,4 L6.5,7 C6.5,7.55228475 6.94771525,8 7.5,8 L14.5,8 C15.0522847,8 15.5,7.55228475 15.5,7 L15.5,4 Z M14,5 C14.2761424,5 14.5,5.22385763 14.5,5.5 L14.5,6.5 C14.5,6.77614237 14.2761424,7 14,7 C13.7238576,7 13.5,6.77614237 13.5,6.5 L13.5,5.5 C13.5,5.22385763 13.7238576,5 14,5 Z" fill="#999" fill-rule="nonzero"/>
</svg>
