<svg xmlns="http://www.w3.org/2000/svg" viewBox="0 0 22 22" class="design-iconfont">
  <path d="M13.0523818,0 C14.6195209,0 15.9109748,1.1774359 15.9954855,2.67487179 L15.9995879,2.83076923 L15.9995879,7.0974359 C15.9995879,7.4209511 15.7489172,7.68914998 15.4261627,7.71120076 C15.1034081,7.73325154 14.8186899,7.50162396 14.7745938,7.18112821 L14.7688504,7.0974359 L14.7688504,2.83076923 C14.7688504,1.99384615 14.0747144,1.29641026 13.181199,1.23487179 L13.0523818,1.23076923 L12.7176212,1.23076923 L12.7176212,3.8974359 C12.7175933,4.64462968 12.1445522,5.26692688 11.3999115,5.32841026 L11.2817607,5.33333333 L4.7178272,5.33333333 C3.97065266,5.33330542 3.34837149,4.76024963 3.2868897,4.01558974 L3.28196675,3.8974359 L3.28196675,1.23076923 L2.94720614,1.23076923 C2.03646037,1.23076923 1.30047932,1.89046154 1.23566048,2.71261538 L1.23073753,2.83076923 L1.23073753,13.1692308 C1.23073753,14.0061538 1.9248735,14.7035897 2.81838895,14.7651282 L2.94720614,14.7692308 L10.7205444,14.7692308 C11.0440513,14.7693299 11.3122432,15.0199079 11.3342934,15.3426708 C11.3563437,15.6654336 11.124722,15.9501592 10.8042345,15.9942564 L10.7205444,16 L2.94720614,16 C1.38006702,16 0.0886131023,14.8225641 0.00410245844,13.3251282 L0,13.1692308 L0,2.83076923 C0,1.31282051 1.23894245,0.0845128205 2.78638977,0.0041025641 L2.94720614,0 L13.0523818,0 L13.0523818,0 Z M14.1616865,9.18974359 L14.2240439,9.25620513 L15.8650273,11.3074872 C16.0230856,11.5049361 16.0442413,11.7789901 15.9183592,11.998359 L15.8650273,12.0771282 L14.2240439,14.1284103 C14.0239168,14.3841082 13.659563,14.4403132 13.3916883,14.2568089 C13.1238136,14.0733046 13.0446042,13.713242 13.2107367,13.4342564 L13.2624276,13.3587692 L14.1026111,12.3076923 L7.99979395,12.3076923 C7.67628708,12.3075931 7.40809511,12.0570152 7.3860449,11.7342523 C7.36399469,11.4114894 7.5956163,11.1267639 7.9161038,11.0826667 L7.99979395,11.0769231 L14.1034316,11.0769231 L13.2624276,10.0258462 C13.0714105,9.78760727 13.0839838,9.445325 13.2919653,9.22174359 L13.3584252,9.16020513 C13.5966579,8.96918302 13.9389314,8.98175666 14.162507,9.18974359 L14.1616865,9.18974359 Z M11.4868836,1.23076923 L4.51270428,1.23076923 L4.51270428,3.8974359 C4.51286236,3.9925804 4.5784229,4.07512767 4.67105918,4.09682051 L4.7178272,4.1025641 L11.2817607,4.1025641 C11.3769028,4.10240602 11.4594479,4.03684379 11.4811402,3.94420513 L11.4868836,3.8974359 L11.4868836,1.23076923 L11.4868836,1.23076923 Z" transform="translate(3 3)" fill="#999" fill-rule="nonzero"/>
</svg>
